<svg viewBox="-0.5 -0.5 24 24" xmlns="http://www.w3.org/2000/svg"><path d="M3.5525416666666665 5.270833333333334h17.86141666666667a0.9583333333333334 0.9583333333333334 0 0 1 0.9247916666666667 1.210375l-1.9674583333333333 7.212416666666667a2.875 2.875 0 0 1 -2.773416666666667 2.118875H5.7720416666666665" fill="none" stroke="#000000" stroke-linecap="round" stroke-linejoin="round" stroke-width="1"></path><path d="M0.62675 0.4791666666666667h0.36225a1.9166666666666667 1.9166666666666667 0 0 1 1.8754583333333334 1.5218333333333334L6.0566666666666675 17.165666666666667A1.9166666666666667 1.9166666666666667 0 0 0 7.932124999999999 18.6875h10.902958333333334" fill="none" stroke="#000000" stroke-linecap="round" stroke-linejoin="round" stroke-width="1"></path><path d="M5.897583333333333 21.083333333333336a1.4375 1.4375 0 1 0 2.875 0 1.4375 1.4375 0 1 0 -2.875 0Z" fill="none" stroke="#000000" stroke-linecap="round" stroke-linejoin="round" stroke-width="1"></path><path d="M15.480916666666667 21.083333333333336a1.4375 1.4375 0 1 0 2.875 0 1.4375 1.4375 0 1 0 -2.875 0Z" fill="none" stroke="#000000" stroke-linecap="round" stroke-linejoin="round" stroke-width="1"></path></svg>