<svg xmlns="http://www.w3.org/2000/svg" fill="none" viewBox="-0.5 -0.5 14 14"><g id="shopping-cart-1--shopping-cart-checkout"><path id="Vector" stroke="#000" stroke-linecap="round" stroke-linejoin="round" d="M0.471276 0.4642857142857143 2.739007142857143 0.4642857142857143l0.8078571428571428 8.032142857142858c0.033577142857142854 0.22141785714285714 0.1460457142857143 0.42324285714285714 0.31668928571428573 0.5682857142857143 0.17063428571428574 0.14504285714285714 0.3879478571428572 0.22350714285714285 0.6118821428571429 0.221h5.85c0.20252142857142857 0.010585714285714287 0.40290714285714285 -0.045435 0.5705142857142856 -0.159445 0.16770000000000002 -0.11401928571428571 0.2934285714285714 -0.2797878571428572 0.35805714285714285 -0.47198357142857145l1.235 -3.7142857142857144c0.04605714285714286 -0.13963857142857145 0.058314285714285714 -0.28822857142857145 0.03565714285714285 -0.43351285714285714 -0.022564285714285714 -0.14529357142857144 -0.07939285714285715 -0.28314000000000006 -0.16565714285714286 -0.4022014285714286 -0.08988571428571429 -0.12658285714285714 -0.2101357142857143 -0.228605 -0.3496071428571429 -0.29674357142857144 -0.13947142857142858 -0.06812928571428573 -0.2938928571428572 -0.10019285714285714 -0.4489642857142857 -0.09325642857142857h-8.496428571428572" stroke-width="1"></path><path id="Vector_2" stroke="#000" stroke-linecap="round" stroke-linejoin="round" d="M10.167578571428571 12.535714285714286c-0.25637857142857146 0 -0.4642857142857143 -0.20790714285714285 -0.4642857142857143 -0.4642857142857143s0.20790714285714285 -0.4642857142857143 0.4642857142857143 -0.4642857142857143 0.4642857142857143 0.20790714285714285 0.4642857142857143 0.4642857142857143 -0.20790714285714285 0.4642857142857143 -0.4642857142857143 0.4642857142857143Z" stroke-width="1"></path><path id="Vector_3" stroke="#000" stroke-linecap="round" stroke-linejoin="round" d="M4.131873571428571 12.535714285714286c-0.256425 0 -0.4642857142857143 -0.20790714285714285 -0.4642857142857143 -0.4642857142857143s0.2078607142857143 -0.4642857142857143 0.4642857142857143 -0.4642857142857143c0.2564157142857143 0 0.4642857142857143 0.20790714285714285 0.4642857142857143 0.4642857142857143s-0.20787 0.4642857142857143 -0.4642857142857143 0.4642857142857143Z" stroke-width="1"></path></g></svg>